<svg xmlns="http://www.w3.org/2000/svg" viewBox="0 0 98 96" aria-hidden="true">
  <path fill="currentColor" fill-rule="evenodd" clip-rule="evenodd" d="M48.85 0C21.88 0 0 21.85 0 48.78c0 21.55 13.98 39.82 33.38 46.27 2.44.45 3.34-1.06 3.34-2.35 0-1.16-.04-5.02-.07-9.12-13.58 2.95-16.45-5.76-16.45-5.76-2.22-5.64-5.42-7.14-5.42-7.14-4.43-3.03.34-2.97.34-2.97 4.9.35 7.48 5.03 7.48 5.03 4.35 7.45 11.42 5.3 14.2 4.05.44-3.15 1.7-5.3 3.1-6.52-10.84-1.23-22.23-5.42-22.23-24.12 0-5.33 1.9-9.68 5.02-13.09-.5-1.23-2.18-6.2.48-12.92 0 0 4.1-1.31 13.43 5a46.7 46.7 0 0 1 12.23-1.64c4.15.02 8.33.56 12.24 1.64 9.33-6.31 13.42-5 13.42-5 2.66 6.72.98 11.69.48 12.92 3.13 3.41 5.02 7.76 5.02 13.09 0 18.75-11.41 22.88-22.28 24.09 1.75 1.51 3.31 4.49 3.31 9.05 0 6.53-.06 11.8-.06 13.41 0 1.3.88 2.82 3.36 2.34C83.98 88.58 98 70.32 98 48.78 98 21.85 76.12 0 48.85 0Z"/>
</svg>
